<svg xmlns="http://www.w3.org/2000/svg" width="1200" height="630" viewBox="0 0 1200 630">
  <defs>
    <linearGradient id="bg" x1="0" y1="0" x2="1" y2="1"><stop offset="0" stop-color="#2563eb"/><stop offset="1" stop-color="#312e81"/></linearGradient>
    <radialGradient id="glow" cx="76%" cy="18%" r="72%"><stop offset="0" stop-color="rgba(255,255,255,0.35)"/><stop offset="1" stop-color="rgba(255,255,255,0)"/></radialGradient>
    <filter id="soft"><feDropShadow dx="0" dy="18" stdDeviation="22" flood-color="rgba(0,0,0,0.28)"/></filter>
  </defs>
  <rect width="1200" height="630" rx="42" fill="url(#bg)"/>
  <rect width="1200" height="630" rx="42" fill="url(#glow)"/>
  <path d="M0 536 C170 475 326 590 514 530 C738 458 905 416 1200 492 L1200 630 L0 630 Z" fill="rgba(0,0,0,0.20)"/>
  <g filter="url(#soft)">
    <text x="72" y="92" font-size="22" fill="rgba(255,255,255,0.76)" font-family="Inter, Arial, sans-serif">PonsLink Blog · Story Insert 02</text>
    <text x="72" y="166" font-size="54" font-weight="850" fill="#fff" font-family="Inter, Arial, sans-serif">Room came first</text>
    <text x="72" y="218" font-size="27" fill="rgba(255,255,255,0.84)" font-family="Inter, Arial, sans-serif">설명보다 먼저 작동하는 공간이 필요했다</text>
  </g>
  <path d="M 212 400 C 275 310, 235 382, 298 292" fill="none" stroke="rgba(255,255,255,0.42)" stroke-width="4" stroke-linecap="round"/><path d="M 422 292 C 485 202, 445 490, 508 400" fill="none" stroke="rgba(255,255,255,0.42)" stroke-width="4" stroke-linecap="round"/><path d="M 632 400 C 695 310, 655 382, 718 292" fill="none" stroke="rgba(255,255,255,0.42)" stroke-width="4" stroke-linecap="round"/>
  <g><circle cx="150" cy="400" r="58" fill="rgba(255,255,255,0.16)" stroke="rgba(255,255,255,0.58)" stroke-width="2"/><text x="150" y="407" text-anchor="middle" font-size="22" font-weight="700" fill="#fff" font-family="Inter, Arial, sans-serif">Room</text></g><g><circle cx="360" cy="292" r="58" fill="rgba(255,255,255,0.16)" stroke="rgba(255,255,255,0.58)" stroke-width="2"/><text x="360" y="299" text-anchor="middle" font-size="22" font-weight="700" fill="#fff" font-family="Inter, Arial, sans-serif">Chat</text></g><g><circle cx="570" cy="400" r="58" fill="rgba(255,255,255,0.16)" stroke="rgba(255,255,255,0.58)" stroke-width="2"/><text x="570" y="407" text-anchor="middle" font-size="22" font-weight="700" fill="#fff" font-family="Inter, Arial, sans-serif">Board</text></g><g><circle cx="780" cy="292" r="58" fill="rgba(255,255,255,0.16)" stroke="rgba(255,255,255,0.58)" stroke-width="2"/><text x="780" y="299" text-anchor="middle" font-size="22" font-weight="700" fill="#fff" font-family="Inter, Arial, sans-serif">Media</text></g>
</svg>
