<svg xmlns="http://www.w3.org/2000/svg" width="980" height="360" viewBox="0 0 980 360">
  <defs><marker id="arrow" markerWidth="10" markerHeight="10" refX="8" refY="3" orient="auto"><path d="M0,0 L0,6 L9,3 z" fill="#3b0764"/></marker></defs>
  <rect width="980" height="360" rx="28" fill="#f8fafc"/>
  <text x="40" y="58" font-size="24" font-weight="800" font-family="Inter, Arial, sans-serif" fill="#111827">Ruminate의 반추 흐름</text>
  <text x="40" y="92" font-size="17" font-family="Inter, Arial, sans-serif" fill="#64748b">답을 바로 닫지 않고, 사용자가 자기 상황을 다시 보게 만든다.</text>
  <path d="M 158 166 L 207 166" stroke="#3b0764" stroke-width="3" marker-end="url(#arrow)"/>
<path d="M 363 166 L 412 166" stroke="#3b0764" stroke-width="3" marker-end="url(#arrow)"/>
<path d="M 568 166 L 617 166" stroke="#3b0764" stroke-width="3" marker-end="url(#arrow)"/>
<path d="M 773 166 L 822 166" stroke="#3b0764" stroke-width="3" marker-end="url(#arrow)"/>
  <g><rect x="8" y="130" width="144" height="72" rx="18" fill="#fff" stroke="#9333ea" stroke-width="2"/><text x="80" y="172" text-anchor="middle" font-size="18" font-family="Inter, Arial, sans-serif" fill="#1f2937">고민</text></g>
<g><rect x="213" y="130" width="144" height="72" rx="18" fill="#fff" stroke="#9333ea" stroke-width="2"/><text x="285" y="172" text-anchor="middle" font-size="18" font-family="Inter, Arial, sans-serif" fill="#1f2937">맥락</text></g>
<g><rect x="418" y="130" width="144" height="72" rx="18" fill="#fff" stroke="#9333ea" stroke-width="2"/><text x="490" y="172" text-anchor="middle" font-size="18" font-family="Inter, Arial, sans-serif" fill="#1f2937">고전</text></g>
<g><rect x="623" y="130" width="144" height="72" rx="18" fill="#fff" stroke="#9333ea" stroke-width="2"/><text x="695" y="172" text-anchor="middle" font-size="18" font-family="Inter, Arial, sans-serif" fill="#1f2937">질문</text></g>
<g><rect x="828" y="130" width="144" height="72" rx="18" fill="#fff" stroke="#9333ea" stroke-width="2"/><text x="900" y="172" text-anchor="middle" font-size="18" font-family="Inter, Arial, sans-serif" fill="#1f2937">회고</text></g>
</svg>
