<svg xmlns="http://www.w3.org/2000/svg" width="1040" height="390" viewBox="0 0 1040 390">
  <defs><marker id="arrow" markerWidth="10" markerHeight="10" refX="8" refY="3" orient="auto"><path d="M0,0 L0,6 L9,3 z" fill="#042f2e"/></marker></defs>
  <rect width="1040" height="390" rx="30" fill="#f8fafc"/>
  <rect x="18" y="18" width="1004" height="354" rx="24" fill="none" stroke="#e2e8f0"/>
  <text x="42" y="64" font-size="25" font-weight="850" fill="#111827" font-family="Inter, Arial, sans-serif">Desktop 경로와 Web-first 경로</text>
  <text x="42" y="100" font-size="17" fill="#64748b" font-family="Inter, Arial, sans-serif">네이티브 성능보다 먼저 혼자 검증 가능한 제품 경로를 택했다.</text>
  <path d="M 167.0 192 L 291.0 192" stroke="#042f2e" stroke-width="3" marker-end="url(#arrow)"/><path d="M 457.0 192 L 581.0 192" stroke="#042f2e" stroke-width="3" marker-end="url(#arrow)"/><path d="M 747.0 192 L 871.0 192" stroke="#042f2e" stroke-width="3" marker-end="url(#arrow)"/>
  <g><rect x="9.0" y="154" width="152" height="76" rx="18" fill="#fff" stroke="#0f766e" stroke-width="2"/><text x="85.0" y="197" text-anchor="middle" font-size="18" font-weight="720" fill="#111827" font-family="Inter, Arial, sans-serif">Tauri 앱</text></g><g><rect x="299.0" y="154" width="152" height="76" rx="18" fill="#fff" stroke="#0f766e" stroke-width="2"/><text x="375.0" y="197" text-anchor="middle" font-size="18" font-weight="720" fill="#111827" font-family="Inter, Arial, sans-serif">다중 기기</text></g><g><rect x="589.0" y="154" width="152" height="76" rx="18" fill="#fff" stroke="#0f766e" stroke-width="2"/><text x="665.0" y="197" text-anchor="middle" font-size="18" font-weight="720" fill="#111827" font-family="Inter, Arial, sans-serif">모바일 앱 부담</text></g><g><rect x="879.0" y="154" width="152" height="76" rx="18" fill="#fff" stroke="#0f766e" stroke-width="2"/><text x="955.0" y="197" text-anchor="middle" font-size="18" font-weight="720" fill="#111827" font-family="Inter, Arial, sans-serif">웹 P2P</text></g>
</svg>
