<svg xmlns="http://www.w3.org/2000/svg" width="1040" height="390" viewBox="0 0 1040 390">
  <defs><marker id="arrow" markerWidth="10" markerHeight="10" refX="8" refY="3" orient="auto"><path d="M0,0 L0,6 L9,3 z" fill="#4c0519"/></marker></defs>
  <rect width="1040" height="390" rx="30" fill="#f8fafc"/>
  <rect x="18" y="18" width="1004" height="354" rx="24" fill="none" stroke="#e2e8f0"/>
  <text x="42" y="64" font-size="25" font-weight="850" fill="#111827" font-family="Inter, Arial, sans-serif">메모리 저장과 스트리밍 저장의 차이</text>
  <text x="42" y="100" font-size="17" fill="#64748b" font-family="Inter, Arial, sans-serif">큰 파일을 브라우저 메모리에 모으면 마지막 단계에서 제품이 무너진다.</text>
  <path d="M 167.0 192 L 291.0 192" stroke="#4c0519" stroke-width="3" marker-end="url(#arrow)"/><path d="M 457.0 192 L 581.0 192" stroke="#4c0519" stroke-width="3" marker-end="url(#arrow)"/><path d="M 747.0 192 L 871.0 192" stroke="#4c0519" stroke-width="3" marker-end="url(#arrow)"/>
  <g><rect x="9.0" y="154" width="152" height="76" rx="18" fill="#fff" stroke="#be123c" stroke-width="2"/><text x="85.0" y="197" text-anchor="middle" font-size="18" font-weight="720" fill="#111827" font-family="Inter, Arial, sans-serif">Receive</text></g><g><rect x="299.0" y="154" width="152" height="76" rx="18" fill="#fff" stroke="#be123c" stroke-width="2"/><text x="375.0" y="197" text-anchor="middle" font-size="18" font-weight="720" fill="#111827" font-family="Inter, Arial, sans-serif">Blob memory</text></g><g><rect x="589.0" y="154" width="152" height="76" rx="18" fill="#fff" stroke="#be123c" stroke-width="2"/><text x="665.0" y="197" text-anchor="middle" font-size="18" font-weight="720" fill="#111827" font-family="Inter, Arial, sans-serif">Crash risk</text></g><g><rect x="879.0" y="154" width="152" height="76" rx="18" fill="#fff" stroke="#be123c" stroke-width="2"/><text x="955.0" y="197" text-anchor="middle" font-size="18" font-weight="720" fill="#111827" font-family="Inter, Arial, sans-serif">Stream writer</text></g>
</svg>
