<svg xmlns="http://www.w3.org/2000/svg" width="1040" height="390" viewBox="0 0 1040 390">
  <defs><marker id="arrow" markerWidth="10" markerHeight="10" refX="8" refY="3" orient="auto"><path d="M0,0 L0,6 L9,3 z" fill="#450a0a"/></marker></defs>
  <rect width="1040" height="390" rx="30" fill="#f8fafc"/>
  <rect x="18" y="18" width="1004" height="354" rx="24" fill="none" stroke="#e2e8f0"/>
  <text x="42" y="64" font-size="25" font-weight="850" fill="#111827" font-family="Inter, Arial, sans-serif">데이터 그리드 관점의 전송</text>
  <text x="42" y="100" font-size="17" fill="#64748b" font-family="Inter, Arial, sans-serif">거대한 파일을 작은 단위로 나누고 순서와 무결성을 다시 맞춘다.</text>
  <path d="M 167.0 192 L 218.5 192" stroke="#450a0a" stroke-width="3" marker-end="url(#arrow)"/><path d="M 384.5 192 L 436.0 192" stroke="#450a0a" stroke-width="3" marker-end="url(#arrow)"/><path d="M 602.0 192 L 653.5 192" stroke="#450a0a" stroke-width="3" marker-end="url(#arrow)"/><path d="M 819.5 192 L 871.0 192" stroke="#450a0a" stroke-width="3" marker-end="url(#arrow)"/>
  <g><rect x="9.0" y="154" width="152" height="76" rx="18" fill="#fff" stroke="#dc2626" stroke-width="2"/><text x="85.0" y="197" text-anchor="middle" font-size="18" font-weight="720" fill="#111827" font-family="Inter, Arial, sans-serif">File</text></g><g><rect x="226.5" y="154" width="152" height="76" rx="18" fill="#fff" stroke="#dc2626" stroke-width="2"/><text x="302.5" y="197" text-anchor="middle" font-size="18" font-weight="720" fill="#111827" font-family="Inter, Arial, sans-serif">Partition</text></g><g><rect x="444.0" y="154" width="152" height="76" rx="18" fill="#fff" stroke="#dc2626" stroke-width="2"/><text x="520.0" y="197" text-anchor="middle" font-size="18" font-weight="720" fill="#111827" font-family="Inter, Arial, sans-serif">Chunk</text></g><g><rect x="661.5" y="154" width="152" height="76" rx="18" fill="#fff" stroke="#dc2626" stroke-width="2"/><text x="737.5" y="197" text-anchor="middle" font-size="18" font-weight="720" fill="#111827" font-family="Inter, Arial, sans-serif">ACK</text></g><g><rect x="879.0" y="154" width="152" height="76" rx="18" fill="#fff" stroke="#dc2626" stroke-width="2"/><text x="955.0" y="197" text-anchor="middle" font-size="18" font-weight="720" fill="#111827" font-family="Inter, Arial, sans-serif">Rebuild</text></g>
</svg>
