<svg xmlns="http://www.w3.org/2000/svg" width="1400" height="840" viewBox="0 0 1400 840" role="img" aria-label="그리드 컴퓨팅을 만들고 싶어서 P2P를 다시 읽기 시작했다 · Dataflow Blueprint">
<defs>
  <marker id="arrow" markerWidth="12" markerHeight="12" refX="10" refY="6" orient="auto"><path d="M2,2 L10,6 L2,10 Z" fill="#496a86"/></marker>
  <filter id="shadow" x="-10%" y="-10%" width="120%" height="120%"><feDropShadow dx="0" dy="6" stdDeviation="8" flood-color="#b8a489" flood-opacity="0.25"/></filter>
</defs>
<rect width="1400" height="840" fill="#e9f0f5"/>
<rect x="46" y="46" width="1308" height="748" rx="34" fill="#fffdf8" stroke="#d8c9b4"/>
<text x="92" y="112" font-size="32" font-weight="700" fill="#2f2720" font-family="sans-serif">그리드 컴퓨팅을 만들고 싶어서 P2P를 다시 읽기 시작했다 · Dataflow </text>
<text x="92" y="150" font-size="16" fill="#8a725a" font-family="monospace">I10 Dataflow Blueprint</text>
<rect x="0" y="0" width="1400" height="840" fill="#e9f0f5" opacity="0.55"/><line x1="0" y1="0" x2="0" y2="840" stroke="#d6e0e8"/><line x1="70" y1="0" x2="70" y2="840" stroke="#d6e0e8"/><line x1="140" y1="0" x2="140" y2="840" stroke="#d6e0e8"/><line x1="210" y1="0" x2="210" y2="840" stroke="#d6e0e8"/><line x1="280" y1="0" x2="280" y2="840" stroke="#d6e0e8"/><line x1="350" y1="0" x2="350" y2="840" stroke="#d6e0e8"/><line x1="420" y1="0" x2="420" y2="840" stroke="#d6e0e8"/><line x1="490" y1="0" x2="490" y2="840" stroke="#d6e0e8"/><line x1="560" y1="0" x2="560" y2="840" stroke="#d6e0e8"/><line x1="630" y1="0" x2="630" y2="840" stroke="#d6e0e8"/><line x1="700" y1="0" x2="700" y2="840" stroke="#d6e0e8"/><line x1="770" y1="0" x2="770" y2="840" stroke="#d6e0e8"/><line x1="840" y1="0" x2="840" y2="840" stroke="#d6e0e8"/><line x1="910" y1="0" x2="910" y2="840" stroke="#d6e0e8"/><line x1="980" y1="0" x2="980" y2="840" stroke="#d6e0e8"/><line x1="1050" y1="0" x2="1050" y2="840" stroke="#d6e0e8"/><line x1="1120" y1="0" x2="1120" y2="840" stroke="#d6e0e8"/><line x1="1190" y1="0" x2="1190" y2="840" stroke="#d6e0e8"/><line x1="1260" y1="0" x2="1260" y2="840" stroke="#d6e0e8"/><line x1="1330" y1="0" x2="1330" y2="840" stroke="#d6e0e8"/><line x1="0" y1="0" x2="1400" y2="0" stroke="#d6e0e8"/><line x1="0" y1="70" x2="1400" y2="70" stroke="#d6e0e8"/><line x1="0" y1="140" x2="1400" y2="140" stroke="#d6e0e8"/><line x1="0" y1="210" x2="1400" y2="210" stroke="#d6e0e8"/><line x1="0" y1="280" x2="1400" y2="280" stroke="#d6e0e8"/><line x1="0" y1="350" x2="1400" y2="350" stroke="#d6e0e8"/><line x1="0" y1="420" x2="1400" y2="420" stroke="#d6e0e8"/><line x1="0" y1="490" x2="1400" y2="490" stroke="#d6e0e8"/><line x1="0" y1="560" x2="1400" y2="560" stroke="#d6e0e8"/><line x1="0" y1="630" x2="1400" y2="630" stroke="#d6e0e8"/><line x1="0" y1="700" x2="1400" y2="700" stroke="#d6e0e8"/><line x1="0" y1="770" x2="1400" y2="770" stroke="#d6e0e8"/><rect x="150" y="360" width="180" height="84" rx="18" fill="#f8fbff" stroke="#b8a489"/><text x="240.0" y="409.0" text-anchor="middle" font-size="22" fill="#2f2720" font-family="sans-serif">작업 큐</text><path d="M330,402 C 357.5,402 357.5,402 385,402" fill="none" stroke="#496a86" stroke-width="3" marker-end="url(#arrow)"/><rect x="385" y="360" width="180" height="84" rx="18" fill="#f8fbff" stroke="#b8a489"/><text x="475.0" y="409.0" text-anchor="middle" font-size="22" fill="#2f2720" font-family="sans-serif">브라우저 워커</text><path d="M565,402 C 592.5,402 592.5,402 620,402" fill="none" stroke="#496a86" stroke-width="3" marker-end="url(#arrow)"/><rect x="620" y="360" width="180" height="84" rx="18" fill="#f8fbff" stroke="#b8a489"/><text x="710.0" y="409.0" text-anchor="middle" font-size="22" fill="#2f2720" font-family="sans-serif">검증</text><path d="M800,402 C 827.5,402 827.5,402 855,402" fill="none" stroke="#496a86" stroke-width="3" marker-end="url(#arrow)"/><rect x="855" y="360" width="180" height="84" rx="18" fill="#f8fbff" stroke="#b8a489"/><text x="945.0" y="409.0" text-anchor="middle" font-size="22" fill="#2f2720" font-family="sans-serif">재시도</text><path d="M1035,402 C 1062.5,402 1062.5,402 1090,402" fill="none" stroke="#496a86" stroke-width="3" marker-end="url(#arrow)"/><rect x="1090" y="360" width="180" height="84" rx="18" fill="#f8fbff" stroke="#b8a489"/><text x="1180.0" y="409.0" text-anchor="middle" font-size="22" fill="#2f2720" font-family="sans-serif">결과 조립</text><text x="700" y="585" text-anchor="middle" font-size="24" fill="#1f4058" font-family="monospace">input → split → assign → verify → assemble</text>
</svg>