<svg xmlns="http://www.w3.org/2000/svg" width="1400" height="840" viewBox="0 0 1400 840" role="img" aria-label="그리드 컴퓨팅은 남는 자원을 작업 단위로 묶는 일이다 · Editorial Architecture Diagram">
<defs>
  <marker id="arrow" markerWidth="12" markerHeight="12" refX="10" refY="6" orient="auto"><path d="M2,2 L10,6 L2,10 Z" fill="#496a86"/></marker>
  <filter id="shadow" x="-10%" y="-10%" width="120%" height="120%"><feDropShadow dx="0" dy="6" stdDeviation="8" flood-color="#b8a489" flood-opacity="0.25"/></filter>
</defs>
<rect width="1400" height="840" fill="#f7f3ea"/>
<rect x="46" y="46" width="1308" height="748" rx="34" fill="#fffdf8" stroke="#d8c9b4"/>
<text x="92" y="112" font-size="32" font-weight="700" fill="#2f2720" font-family="sans-serif">그리드 컴퓨팅은 남는 자원을 작업 단위로 묶는 일이다 · Editorial Ar</text>
<text x="92" y="150" font-size="16" fill="#8a725a" font-family="monospace">I01 Editorial Architecture Diagram</text>
<rect x="140" y="300" width="190" height="92" rx="18" fill="#f7f9fb" stroke="#b8a489"/><text x="235.0" y="353.0" text-anchor="middle" font-size="22" fill="#2f2720" font-family="sans-serif">분할</text><rect x="380" y="300" width="190" height="92" rx="18" fill="#f7f9fb" stroke="#b8a489"/><text x="475.0" y="353.0" text-anchor="middle" font-size="22" fill="#2f2720" font-family="sans-serif">배정</text><rect x="620" y="300" width="190" height="92" rx="18" fill="#f7f9fb" stroke="#b8a489"/><text x="715.0" y="353.0" text-anchor="middle" font-size="22" fill="#2f2720" font-family="sans-serif">실행</text><rect x="860" y="300" width="190" height="92" rx="18" fill="#f7f9fb" stroke="#b8a489"/><text x="955.0" y="353.0" text-anchor="middle" font-size="22" fill="#2f2720" font-family="sans-serif">검증</text><rect x="1100" y="300" width="190" height="92" rx="18" fill="#f7f9fb" stroke="#b8a489"/><text x="1195.0" y="353.0" text-anchor="middle" font-size="22" fill="#2f2720" font-family="sans-serif">재시도</text><path d="M330,346 C 355.0,346 355.0,346 380,346" fill="none" stroke="#496a86" stroke-width="3" marker-end="url(#arrow)"/><text x="355.0" y="334.0" text-anchor="middle" font-size="15" fill="#8a725a" font-family="sans-serif">interface</text><path d="M570,346 C 595.0,346 595.0,346 620,346" fill="none" stroke="#496a86" stroke-width="3" marker-end="url(#arrow)"/><text x="595.0" y="334.0" text-anchor="middle" font-size="15" fill="#8a725a" font-family="sans-serif">interface</text><path d="M810,346 C 835.0,346 835.0,346 860,346" fill="none" stroke="#496a86" stroke-width="3" marker-end="url(#arrow)"/><text x="835.0" y="334.0" text-anchor="middle" font-size="15" fill="#8a725a" font-family="sans-serif">interface</text><path d="M1050,346 C 1075.0,346 1075.0,346 1100,346" fill="none" stroke="#496a86" stroke-width="3" marker-end="url(#arrow)"/><text x="1075.0" y="334.0" text-anchor="middle" font-size="15" fill="#8a725a" font-family="sans-serif">interface</text><rect x="150" y="545" width="1100" height="96" rx="24" fill="#eef4ef" stroke="#9bb69f"/><text x="700" y="602" text-anchor="middle" font-size="24" fill="#2f2720" font-family="sans-serif">control plane stays observable; data plane moves only when it earns its cost</text>
</svg>