<svg xmlns="http://www.w3.org/2000/svg" width="1400" height="840" viewBox="0 0 1400 840" role="img" aria-label="그리드 컴퓨팅을 만들고 싶어서 P2P를 다시 읽기 시작했다 · Hand-drawn Notebook Sketch">
<defs>
  <marker id="arrow" markerWidth="12" markerHeight="12" refX="10" refY="6" orient="auto"><path d="M2,2 L10,6 L2,10 Z" fill="#496a86"/></marker>
  <filter id="shadow" x="-10%" y="-10%" width="120%" height="120%"><feDropShadow dx="0" dy="6" stdDeviation="8" flood-color="#b8a489" flood-opacity="0.25"/></filter>
</defs>
<rect width="1400" height="840" fill="#fbf7ee"/>
<rect x="46" y="46" width="1308" height="748" rx="34" fill="#fffdf8" stroke="#d8c9b4"/>
<text x="92" y="112" font-size="32" font-weight="700" fill="#2f2720" font-family="sans-serif">그리드 컴퓨팅을 만들고 싶어서 P2P를 다시 읽기 시작했다 · Hand-draw</text>
<text x="92" y="150" font-size="16" fill="#8a725a" font-family="monospace">I02 Hand-drawn Notebook Sketch</text>
<line x1="120" y1="210" x2="1270" y2="210" stroke="#e6d9c5"/><line x1="120" y1="264" x2="1270" y2="264" stroke="#e6d9c5"/><line x1="120" y1="318" x2="1270" y2="318" stroke="#e6d9c5"/><line x1="120" y1="372" x2="1270" y2="372" stroke="#e6d9c5"/><line x1="120" y1="426" x2="1270" y2="426" stroke="#e6d9c5"/><line x1="120" y1="480" x2="1270" y2="480" stroke="#e6d9c5"/><line x1="120" y1="534" x2="1270" y2="534" stroke="#e6d9c5"/><line x1="120" y1="588" x2="1270" y2="588" stroke="#e6d9c5"/><line x1="120" y1="642" x2="1270" y2="642" stroke="#e6d9c5"/><line x1="120" y1="696" x2="1270" y2="696" stroke="#e6d9c5"/><path d="M180,300 q80,-70 160,0 t160,0" fill="none" stroke="#496a86" stroke-width="3" stroke-dasharray="8 9"/><path d="M420,380 q80,-70 160,0 t160,0" fill="none" stroke="#496a86" stroke-width="3" stroke-dasharray="8 9"/><path d="M660,300 q80,-70 160,0 t160,0" fill="none" stroke="#496a86" stroke-width="3" stroke-dasharray="8 9"/><text x="180" y="275" font-size="26" fill="#2f2720" font-family="sans-serif">• 작업 큐</text><text x="700" y="357" font-size="26" fill="#2f2720" font-family="sans-serif">• 브라우저 워커</text><text x="180" y="439" font-size="26" fill="#2f2720" font-family="sans-serif">• 검증</text><text x="700" y="521" font-size="26" fill="#2f2720" font-family="sans-serif">• 재시도</text><text x="180" y="603" font-size="26" fill="#2f2720" font-family="sans-serif">• 결과 조립</text><rect x="930" y="575" width="250" height="120" rx="14" fill="#fff3cf" stroke="#d7b98b" transform="rotate(-2 930 575)"/><text x="955" y="640" font-size="23" fill="#2f2720" font-family="sans-serif">완전 분산보다 중앙 스케줄러와 P</text>
</svg>