<svg xmlns="http://www.w3.org/2000/svg" width="1400" height="840" viewBox="0 0 1400 840" role="img" aria-label="서버-클라이언트와 피어 투 피어는 무엇이 다른가 · Storyboard Panels">
<defs>
  <marker id="arrow" markerWidth="12" markerHeight="12" refX="10" refY="6" orient="auto"><path d="M2,2 L10,6 L2,10 Z" fill="#496a86"/></marker>
  <filter id="shadow" x="-10%" y="-10%" width="120%" height="120%"><feDropShadow dx="0" dy="6" stdDeviation="8" flood-color="#b8a489" flood-opacity="0.25"/></filter>
</defs>
<rect width="1400" height="840" fill="#f7f3ea"/>
<rect x="46" y="46" width="1308" height="748" rx="34" fill="#fffdf8" stroke="#d8c9b4"/>
<text x="92" y="112" font-size="32" font-weight="700" fill="#2f2720" font-family="sans-serif">서버-클라이언트와 피어 투 피어는 무엇이 다른가 · Storyboard Pane</text>
<text x="92" y="150" font-size="16" fill="#8a725a" font-family="monospace">I08 Storyboard Panels</text>
<rect x="115" y="240" width="260" height="340" rx="22" fill="#fffdf8" stroke="#cdb99d" filter="url(#shadow)"/><circle cx="195" cy="340" r="42" fill="#d7b98b"/><rect x="245" y="312" width="82" height="64" rx="10" fill="#e9f0f5" stroke="#496a86"/><path d="M190,430 q70,-60 140,0" fill="none" stroke="#496a86" stroke-width="3" marker-end="url(#arrow)"/><text x="245" y="520" text-anchor="middle" font-size="22" fill="#2f2720" font-family="sans-serif">클라이언트</text><rect x="430" y="240" width="260" height="340" rx="22" fill="#fffdf8" stroke="#cdb99d" filter="url(#shadow)"/><circle cx="510" cy="340" r="42" fill="#d7b98b"/><rect x="560" y="312" width="82" height="64" rx="10" fill="#e9f0f5" stroke="#496a86"/><path d="M505,430 q70,-60 140,0" fill="none" stroke="#496a86" stroke-width="3" marker-end="url(#arrow)"/><text x="560" y="520" text-anchor="middle" font-size="22" fill="#2f2720" font-family="sans-serif">서버</text><rect x="745" y="240" width="260" height="340" rx="22" fill="#fffdf8" stroke="#cdb99d" filter="url(#shadow)"/><circle cx="825" cy="340" r="42" fill="#d7b98b"/><rect x="875" y="312" width="82" height="64" rx="10" fill="#e9f0f5" stroke="#496a86"/><path d="M820,430 q70,-60 140,0" fill="none" stroke="#496a86" stroke-width="3" marker-end="url(#arrow)"/><text x="875" y="520" text-anchor="middle" font-size="22" fill="#2f2720" font-family="sans-serif">피어</text><rect x="1060" y="240" width="260" height="340" rx="22" fill="#fffdf8" stroke="#cdb99d" filter="url(#shadow)"/><circle cx="1140" cy="340" r="42" fill="#d7b98b"/><rect x="1190" y="312" width="82" height="64" rx="10" fill="#e9f0f5" stroke="#496a86"/><path d="M1135,430 q70,-60 140,0" fill="none" stroke="#496a86" stroke-width="3" marker-end="url(#arrow)"/><text x="1190" y="520" text-anchor="middle" font-size="22" fill="#2f2720" font-family="sans-serif">제어면</text>
</svg>