<svg xmlns="http://www.w3.org/2000/svg" width="1400" height="840" viewBox="0 0 1400 840" role="img" aria-label="WebRTC 이전에 Signaling, STUN, TURN, ICE를 먼저 이해해야 한다">
<defs>
  <marker id="arrow" markerWidth="12" markerHeight="12" refX="10" refY="6" orient="auto"><path d="M2,2 L10,6 L2,10 Z" fill="#496a86"/></marker>
  <filter id="shadow" x="-10%" y="-10%" width="120%" height="120%"><feDropShadow dx="0" dy="6" stdDeviation="8" flood-color="#b8a489" flood-opacity="0.25"/></filter>
</defs>
<rect width="1400" height="840" fill="#f7f3ea"/>
<rect x="46" y="46" width="1308" height="748" rx="34" fill="#fffdf8" stroke="#d8c9b4"/>
<text x="92" y="112" font-size="32" font-weight="700" fill="#2f2720" font-family="sans-serif">WebRTC 이전에 Signaling, STUN, TURN, ICE를 먼저 이해</text>
<text x="92" y="150" font-size="16" fill="#8a725a" font-family="monospace">Featured editorial cover</text>
<text x="150" y="285" font-size="54" font-weight="800" fill="#2f2720" font-family="sans-serif">WebRTC 이전에 Signaling, STUN, </text><text x="150" y="350" font-size="26" fill="#8a725a" font-family="sans-serif">Concept Deconstruction</text><rect x="150" y="410" width="1100" height="86" rx="26" fill="#eef4ef" stroke="#9bb69f"/><text x="700" y="462" text-anchor="middle" font-size="25" fill="#2f2720" font-family="sans-serif">WebRTC 연결은 미디어 전송 전에 약속 교환, 주소 발견, 후보 시험, 릴레이 전환을 거치는 </text><rect x="150" y="570" width="190" height="52" rx="20" fill="#fff8ed" stroke="#d7b98b"/><text x="245" y="603" text-anchor="middle" font-size="20" fill="#2f2720" font-family="sans-serif">Signaling</text><rect x="380" y="570" width="190" height="52" rx="20" fill="#fff8ed" stroke="#d7b98b"/><text x="475" y="603" text-anchor="middle" font-size="20" fill="#2f2720" font-family="sans-serif">STUN</text><rect x="610" y="570" width="190" height="52" rx="20" fill="#fff8ed" stroke="#d7b98b"/><text x="705" y="603" text-anchor="middle" font-size="20" fill="#2f2720" font-family="sans-serif">TURN</text><rect x="840" y="570" width="190" height="52" rx="20" fill="#fff8ed" stroke="#d7b98b"/><text x="935" y="603" text-anchor="middle" font-size="20" fill="#2f2720" font-family="sans-serif">ICE</text><rect x="1070" y="570" width="190" height="52" rx="20" fill="#fff8ed" stroke="#d7b98b"/><text x="1165" y="603" text-anchor="middle" font-size="20" fill="#2f2720" font-family="sans-serif">NAT</text><text x="700" y="700" text-anchor="middle" font-size="18" fill="#8a725a" font-family="monospace">T04 · I09 · I05 · I07 · I01</text>
</svg>