<svg xmlns="http://www.w3.org/2000/svg" width="1400" height="840" viewBox="0 0 1400 840" role="img" aria-label="WebRTC 이전에 Signaling, STUN, TURN, ICE를 먼저 이해해야 한다 · Component Catalog">
<defs>
  <marker id="arrow" markerWidth="12" markerHeight="12" refX="10" refY="6" orient="auto"><path d="M2,2 L10,6 L2,10 Z" fill="#496a86"/></marker>
  <filter id="shadow" x="-10%" y="-10%" width="120%" height="120%"><feDropShadow dx="0" dy="6" stdDeviation="8" flood-color="#b8a489" flood-opacity="0.25"/></filter>
</defs>
<rect width="1400" height="840" fill="#f7f3ea"/>
<rect x="46" y="46" width="1308" height="748" rx="34" fill="#fffdf8" stroke="#d8c9b4"/>
<text x="92" y="112" font-size="32" font-weight="700" fill="#2f2720" font-family="sans-serif">WebRTC 이전에 Signaling, STUN, TURN, ICE를 먼저 이해</text>
<text x="92" y="150" font-size="16" fill="#8a725a" font-family="monospace">I09 Component Catalog</text>
<rect x="170" y="245" width="290" height="130" rx="18" fill="#f8fafc" stroke="#b8a489"/><text x="198" y="290" font-size="25" font-weight="700" fill="#2f2720" font-family="sans-serif">Signaling</text><text x="198" y="331" font-size="17" fill="#735f4a" font-family="sans-serif">role · boundary · signal</text><rect x="530" y="245" width="290" height="130" rx="18" fill="#f8fafc" stroke="#b8a489"/><text x="558" y="290" font-size="25" font-weight="700" fill="#2f2720" font-family="sans-serif">STUN</text><text x="558" y="331" font-size="17" fill="#735f4a" font-family="sans-serif">role · boundary · signal</text><rect x="890" y="245" width="290" height="130" rx="18" fill="#f8fafc" stroke="#b8a489"/><text x="918" y="290" font-size="25" font-weight="700" fill="#2f2720" font-family="sans-serif">TURN</text><text x="918" y="331" font-size="17" fill="#735f4a" font-family="sans-serif">role · boundary · signal</text><rect x="170" y="435" width="290" height="130" rx="18" fill="#f8fafc" stroke="#b8a489"/><text x="198" y="480" font-size="25" font-weight="700" fill="#2f2720" font-family="sans-serif">ICE</text><text x="198" y="521" font-size="17" fill="#735f4a" font-family="sans-serif">role · boundary · signal</text><rect x="530" y="435" width="290" height="130" rx="18" fill="#f8fafc" stroke="#b8a489"/><text x="558" y="480" font-size="25" font-weight="700" fill="#2f2720" font-family="sans-serif">NAT</text><text x="558" y="521" font-size="17" fill="#735f4a" font-family="sans-serif">role · boundary · signal</text><rect x="530" y="625" width="340" height="58" rx="20" fill="#fff3df" stroke="#d7b98b"/><text x="700" y="662" text-anchor="middle" font-size="22" fill="#2f2720" font-family="sans-serif">catalog first, coupling later</text>
</svg>