<svg xmlns="http://www.w3.org/2000/svg" width="1400" height="840" viewBox="0 0 1400 840" role="img" aria-label="WebRTC 이전에 Signaling, STUN, TURN, ICE를 먼저 이해해야 한다 · Failure Map">
<defs>
  <marker id="arrow" markerWidth="12" markerHeight="12" refX="10" refY="6" orient="auto"><path d="M2,2 L10,6 L2,10 Z" fill="#496a86"/></marker>
  <filter id="shadow" x="-10%" y="-10%" width="120%" height="120%"><feDropShadow dx="0" dy="6" stdDeviation="8" flood-color="#b8a489" flood-opacity="0.25"/></filter>
</defs>
<rect width="1400" height="840" fill="#f7f3ea"/>
<rect x="46" y="46" width="1308" height="748" rx="34" fill="#fffdf8" stroke="#d8c9b4"/>
<text x="92" y="112" font-size="32" font-weight="700" fill="#2f2720" font-family="sans-serif">WebRTC 이전에 Signaling, STUN, TURN, ICE를 먼저 이해</text>
<text x="92" y="150" font-size="16" fill="#8a725a" font-family="monospace">I07 Failure Map</text>
<rect x="140" y="370" width="210" height="92" rx="18" fill="#eef4ef" stroke="#b8a489"/><text x="245.0" y="423.0" text-anchor="middle" font-size="22" fill="#2f2720" font-family="sans-serif">client</text><rect x="595" y="370" width="210" height="92" rx="18" fill="#fff3df" stroke="#b8a489"/><text x="700.0" y="423.0" text-anchor="middle" font-size="22" fill="#2f2720" font-family="sans-serif">network</text><rect x="1050" y="370" width="210" height="92" rx="18" fill="#eef4ef" stroke="#b8a489"/><text x="1155.0" y="423.0" text-anchor="middle" font-size="22" fill="#2f2720" font-family="sans-serif">peer</text><path d="M350,416 C 472.5,416 472.5,416 595,416" fill="none" stroke="#496a86" stroke-width="3" marker-end="url(#arrow)"/><text x="472.5" y="404.0" text-anchor="middle" font-size="15" fill="#8a725a" font-family="sans-serif">try</text><path d="M805,416 C 927.5,416 927.5,416 1050,416" fill="none" stroke="#496a86" stroke-width="3" marker-end="url(#arrow)"/><text x="927.5" y="404.0" text-anchor="middle" font-size="15" fill="#8a725a" font-family="sans-serif">deliver</text><circle cx="460" cy="310" r="38" fill="#f7e8e4" stroke="#b96f62" stroke-width="4"/><text x="460" y="317" text-anchor="middle" font-size="18" fill="#7f3128" font-family="sans-serif">!</text><text x="520" y="300" font-size="19" fill="#2f2720" font-family="sans-serif">시그널링을 WebRTC가 자동 제공한다고 착</text><circle cx="690" cy="540" r="38" fill="#f7e8e4" stroke="#b96f62" stroke-width="4"/><text x="690" y="547" text-anchor="middle" font-size="18" fill="#7f3128" font-family="sans-serif">!</text><text x="710" y="530" font-size="19" fill="#2f2720" font-family="sans-serif">TURN 비용을 예산에 넣지 않음</text><circle cx="920" cy="310" r="38" fill="#f7e8e4" stroke="#b96f62" stroke-width="4"/><text x="920" y="317" text-anchor="middle" font-size="18" fill="#7f3128" font-family="sans-serif">!</text><text x="900" y="300" font-size="19" fill="#2f2720" font-family="sans-serif">ICE 실패가 사용자에게 무한 로딩으로 보임</text><path d="M230,530 C450,700 930,700 1160,530" fill="none" stroke="#6f8a72" stroke-width="4" stroke-dasharray="12 10" marker-end="url(#arrow)"/><text x="700" y="690" text-anchor="middle" font-size="22" fill="#416447" font-family="sans-serif">fallback path</text>
</svg>