<svg xmlns="http://www.w3.org/2000/svg" width="1400" height="840" viewBox="0 0 1400 840" role="img" aria-label="실시간 제품은 상태 머신, 역압, 멱등성으로 버틴다 · Product Screen Mock">
<defs>
  <marker id="arrow" markerWidth="12" markerHeight="12" refX="10" refY="6" orient="auto"><path d="M2,2 L10,6 L2,10 Z" fill="#496a86"/></marker>
  <filter id="shadow" x="-10%" y="-10%" width="120%" height="120%"><feDropShadow dx="0" dy="6" stdDeviation="8" flood-color="#b8a489" flood-opacity="0.25"/></filter>
</defs>
<rect width="1400" height="840" fill="#f7f3ea"/>
<rect x="46" y="46" width="1308" height="748" rx="34" fill="#fffdf8" stroke="#d8c9b4"/>
<text x="92" y="112" font-size="32" font-weight="700" fill="#2f2720" font-family="sans-serif">실시간 제품은 상태 머신, 역압, 멱등성으로 버틴다 · Product Scree</text>
<text x="92" y="150" font-size="16" fill="#8a725a" font-family="monospace">I03 Product Screen Mock</text>
<rect x="150" y="210" width="1100" height="500" rx="22" fill="#f8fafc" stroke="#c9d3dc" filter="url(#shadow)"/><rect x="150" y="210" width="1100" height="56" rx="22" fill="#e9edf2"/><text x="190" y="247" font-size="20" font-family="monospace" fill="#475569">runtime monitor · live surface</text><rect x="180" y="250" width="1040" height="48" rx="10" fill="#eef4ef"/><text x="210" y="281" font-size="19" fill="#2f2720" font-family="monospace">boolean 플래그가 불가능한 상태 조합을 만듦</text><circle cx="1160" cy="274" r="12" fill="#6f8a72"/><rect x="180" y="322" width="1040" height="48" rx="10" fill="#fff7e8"/><text x="210" y="353" font-size="19" fill="#2f2720" font-family="monospace">버퍼 수위를 보지 않고 계속 보냄</text><circle cx="1160" cy="346" r="12" fill="#d7b98b"/><rect x="180" y="394" width="1040" height="48" rx="10" fill="#f7eeee"/><text x="210" y="425" font-size="19" fill="#2f2720" font-family="monospace">재시도 요청이 같은 작업을 두 번 처리함</text><circle cx="1160" cy="418" r="12" fill="#b96f62"/><rect x="180" y="466" width="1040" height="48" rx="10" fill="#eef4ef"/><text x="210" y="497" font-size="19" fill="#2f2720" font-family="monospace">boolean 플래그가 불가능한 상태 조합을 만듦</text><circle cx="1160" cy="490" r="12" fill="#6f8a72"/><rect x="180" y="538" width="1040" height="48" rx="10" fill="#fff7e8"/><text x="210" y="569" font-size="19" fill="#2f2720" font-family="monospace">버퍼 수위를 보지 않고 계속 보냄</text><circle cx="1160" cy="562" r="12" fill="#d7b98b"/><rect x="180" y="610" width="1040" height="48" rx="10" fill="#f7eeee"/><text x="210" y="641" font-size="19" fill="#2f2720" font-family="monospace">재시도 요청이 같은 작업을 두 번 처리함</text><circle cx="1160" cy="634" r="12" fill="#b96f62"/>
</svg>