<svg xmlns="http://www.w3.org/2000/svg" width="1400" height="840" viewBox="0 0 1400 840" role="img" aria-label="WebRTC 이전에 Signaling, STUN, TURN, ICE를 먼저 이해해야 한다 · Sequence Timeline">
<defs>
  <marker id="arrow" markerWidth="12" markerHeight="12" refX="10" refY="6" orient="auto"><path d="M2,2 L10,6 L2,10 Z" fill="#496a86"/></marker>
  <filter id="shadow" x="-10%" y="-10%" width="120%" height="120%"><feDropShadow dx="0" dy="6" stdDeviation="8" flood-color="#b8a489" flood-opacity="0.25"/></filter>
</defs>
<rect width="1400" height="840" fill="#f7f3ea"/>
<rect x="46" y="46" width="1308" height="748" rx="34" fill="#fffdf8" stroke="#d8c9b4"/>
<text x="92" y="112" font-size="32" font-weight="700" fill="#2f2720" font-family="sans-serif">WebRTC 이전에 Signaling, STUN, TURN, ICE를 먼저 이해</text>
<text x="92" y="150" font-size="16" fill="#8a725a" font-family="monospace">I05 Sequence Timeline</text>
<line x1="180" y1="440" x2="1220" y2="440" stroke="#496a86" stroke-width="5" marker-end="url(#arrow)"/><circle cx="220" cy="440" r="26" fill="#fffdf8" stroke="#496a86" stroke-width="4"/><text x="220" y="360" text-anchor="middle" font-size="22" fill="#2f2720" font-family="sans-serif">Signaling</text><line x1="220" y1="414" x2="220" y2="386" stroke="#b8a489"/><circle cx="455" cy="440" r="26" fill="#fffdf8" stroke="#496a86" stroke-width="4"/><text x="455" y="520" text-anchor="middle" font-size="22" fill="#2f2720" font-family="sans-serif">STUN</text><line x1="455" y1="466" x2="455" y2="492" stroke="#b8a489"/><circle cx="690" cy="440" r="26" fill="#fffdf8" stroke="#496a86" stroke-width="4"/><text x="690" y="360" text-anchor="middle" font-size="22" fill="#2f2720" font-family="sans-serif">TURN</text><line x1="690" y1="414" x2="690" y2="386" stroke="#b8a489"/><circle cx="925" cy="440" r="26" fill="#fffdf8" stroke="#496a86" stroke-width="4"/><text x="925" y="520" text-anchor="middle" font-size="22" fill="#2f2720" font-family="sans-serif">ICE</text><line x1="925" y1="466" x2="925" y2="492" stroke="#b8a489"/><circle cx="1160" cy="440" r="26" fill="#fffdf8" stroke="#496a86" stroke-width="4"/><text x="1160" y="360" text-anchor="middle" font-size="22" fill="#2f2720" font-family="sans-serif">NAT</text><line x1="1160" y1="414" x2="1160" y2="386" stroke="#b8a489"/>
</svg>