<svg xmlns="http://www.w3.org/2000/svg" width="1400" height="840" viewBox="0 0 1400 840">
<defs><marker id="arrow" markerWidth="12" markerHeight="12" refX="10" refY="6" orient="auto"><path d="M2,2 L10,6 L2,10 Z" fill="#7c5f43"/></marker></defs>
<rect width="1400" height="840" fill="#f7f3ea"/><rect x="48" y="48" width="1304" height="744" rx="34" fill="#fffdf8" stroke="#d8c9b4"/>
<text x="92" y="118" font-size="34" font-weight="700" fill="#2f2720" font-family="sans-serif">그리드 컴퓨팅을 만들고 싶어서 P2P를 다시 읽기 시작했다 · flow</text>
<text x="92" y="158" font-size="16" fill="#8a725a" font-family="monospace">FLOW · PonsLink visual note</text>
<rect x="115" y="360" width="190" height="92" rx="18" fill="#edf4f2" stroke="#b8a489" stroke-width="2"/><text x="210.0" y="412.0" text-anchor="middle" font-size="24" fill="#3c3128" font-family="sans-serif">작업 큐</text>
<path d="M305 406 C 332.5 406, 332.5 406, 360 406" fill="none" stroke="#7c5f43" stroke-width="3" marker-end="url(#arrow)"/><text x="332.5" y="394.0" text-anchor="middle" font-size="16" fill="#735f4a" font-family="sans-serif">1</text>
<rect x="360" y="360" width="190" height="92" rx="18" fill="#edf4f2" stroke="#b8a489" stroke-width="2"/><text x="455.0" y="412.0" text-anchor="middle" font-size="24" fill="#3c3128" font-family="sans-serif">스케줄러</text>
<path d="M550 406 C 577.5 406, 577.5 406, 605 406" fill="none" stroke="#7c5f43" stroke-width="3" marker-end="url(#arrow)"/><text x="577.5" y="394.0" text-anchor="middle" font-size="16" fill="#735f4a" font-family="sans-serif">2</text>
<rect x="605" y="360" width="190" height="92" rx="18" fill="#edf4f2" stroke="#b8a489" stroke-width="2"/><text x="700.0" y="412.0" text-anchor="middle" font-size="24" fill="#3c3128" font-family="sans-serif">피어 워커</text>
<path d="M795 406 C 822.5 406, 822.5 406, 850 406" fill="none" stroke="#7c5f43" stroke-width="3" marker-end="url(#arrow)"/><text x="822.5" y="394.0" text-anchor="middle" font-size="16" fill="#735f4a" font-family="sans-serif">3</text>
<rect x="850" y="360" width="190" height="92" rx="18" fill="#edf4f2" stroke="#b8a489" stroke-width="2"/><text x="945.0" y="412.0" text-anchor="middle" font-size="24" fill="#3c3128" font-family="sans-serif">검증기</text>
<path d="M1040 406 C 1067.5 406, 1067.5 406, 1095 406" fill="none" stroke="#7c5f43" stroke-width="3" marker-end="url(#arrow)"/><text x="1067.5" y="394.0" text-anchor="middle" font-size="16" fill="#735f4a" font-family="sans-serif">4</text>
<rect x="1095" y="360" width="190" height="92" rx="18" fill="#edf4f2" stroke="#b8a489" stroke-width="2"/><text x="1190.0" y="412.0" text-anchor="middle" font-size="24" fill="#3c3128" font-family="sans-serif">결과 조립</text>
<text x="700" y="560" text-anchor="middle" font-size="24" fill="#3c3128" font-family="sans-serif">작은 단위로 나누고, 상태를 기록하고, 실패한 조각만 다시 흘린다.</text>
</svg>